<?xml version="1.0" encoding="UTF-8" standalone="no"?>
<!-- Created with Inkscape (http://www.inkscape.org/) -->

<svg
   xmlns:dc="http://purl.org/dc/elements/1.1/"
   xmlns:cc="http://creativecommons.org/ns#"
   xmlns:rdf="http://www.w3.org/1999/02/22-rdf-syntax-ns#"
   xmlns:svg="http://www.w3.org/2000/svg"
   xmlns="http://www.w3.org/2000/svg"
   xmlns:sodipodi="http://sodipodi.sourceforge.net/DTD/sodipodi-0.dtd"
   xmlns:inkscape="http://www.inkscape.org/namespaces/inkscape"
   id="svg3102"
   version="1.1"
   inkscape:version="0.48.4 r9939"
   width="500"
   height="488"
   sodipodi:docname="zodiac-leo.png">
  <metadata
     id="metadata3108">
    <rdf:RDF>
      <cc:Work
         rdf:about="">
        <dc:format>image/svg+xml</dc:format>
        <dc:type
           rdf:resource="http://purl.org/dc/dcmitype/StillImage" />
        <dc:title></dc:title>
      </cc:Work>
    </rdf:RDF>
  </metadata>
  <defs
     id="defs3106" />
  <sodipodi:namedview
     pagecolor="#ffffff"
     bordercolor="#666666"
     borderopacity="1"
     objecttolerance="10"
     gridtolerance="10"
     guidetolerance="10"
     inkscape:pageopacity="0"
     inkscape:pageshadow="2"
     inkscape:window-width="640"
     inkscape:window-height="480"
     id="namedview3104"
     showgrid="false"
     inkscape:zoom="0.48360656"
     inkscape:cx="250"
     inkscape:cy="244"
     inkscape:window-x="53"
     inkscape:window-y="24"
     inkscape:window-maximized="0"
     inkscape:current-layer="svg3102" />
  <path
     style="fill:#000000"
     d="m 375.70189,472.36856 c -0.34729,-0.34729 -2.90097,-0.58031 -5.67484,-0.51782 -2.90984,0.0656 -7.1496,-0.71656 -10.02211,-1.84879 -3.79073,-1.49417 -5.59492,-1.72814 -7.56122,-0.98055 -3.10164,1.17924 -7.08147,0.34159 -10.32858,-2.17389 C 340.80347,465.83138 339.28788,465 338.74716,465 c -0.54072,0 -2.5207,-1.35 -4.39994,-3 -3.83216,-3.36468 -9.22959,-4.05158 -11.38918,-1.44944 -2.07041,2.49469 -6.20117,1.41957 -7.06578,-1.83903 -0.40693,-1.53365 -2.78005,-4.68365 -5.27361,-7 C 305.52677,446.98153 304,443.76043 304,437.74781 l 0,-4.12199 -2.80472,2.68709 c -3.17158,3.03856 -4.71953,3.36925 -5.55691,1.18709 -0.31658,-0.825 -1.62872,-1.5 -2.91586,-1.5 -3.17104,0 -5.51451,-1.98284 -5.90177,-4.99357 -0.24208,-1.88203 -1.05648,-2.62363 -3.32074,-3.0239 -2.87734,-0.50865 -2.98708,-0.71684 -2.68388,-5.092 0.27585,-3.98057 -0.13931,-5.12401 -3.25908,-8.9761 -1.96636,-2.42794 -4.9497,-7.33943 -6.62966,-10.91443 -1.67995,-3.575 -3.75169,-7.92528 -4.60385,-9.66728 -1.06029,-2.16748 -1.35501,-4.53498 -0.93365,-7.5 1.50503,-10.59045 1.77023,-22.5226 0.69113,-31.09567 -0.95992,-7.62624 -0.9172,-9.95059 0.24337,-13.24335 0.81105,-2.30112 1.08751,-4.8574 0.6523,-6.03163 -2.14395,-5.78451 -1.10943,-22.36508 1.93183,-30.96207 9.77634,-27.6356 11.7658,-33.05611 12.91352,-35.18426 0.64788,-1.20134 1.17797,-3.39823 1.17797,-4.88196 0,-3.43944 3.2998,-8.79901 7.0705,-11.48398 2.46867,-1.75785 2.9295,-2.76849 2.9295,-6.42468 0,-4.56194 4.37955,-15.64959 7.99901,-20.25099 1.10055,-1.39912 2.00099,-3.23661 2.00099,-4.08332 0,-2.09333 7.71435,-17.09015 10.38614,-20.19081 5.77284,-6.6995 6.75287,-8.89018 6.05603,-13.53706 -0.49397,-3.29405 -0.25094,-5.10584 0.92578,-6.90175 0.87757,-1.33935 1.54926,-4.15103 1.49264,-6.24818 -0.0888,-3.29037 2.13899,-15.45673 6.1916,-33.81301 0.60713,-2.75 1.54039,-9.725 2.07391,-15.5 0.53351,-5.775 1.61453,-14.1 2.40225,-18.5 1.06826,-5.96703 1.18822,-9.65179 0.47204,-14.5 -0.5281,-3.575 -0.96922,-11.462372 -0.98028,-17.527494 -0.0145,-7.961921 -0.42115,-11.600052 -1.46272,-13.087103 -0.79343,-1.132785 -1.65932,-3.820413 -1.92419,-5.972506 C 328.36832,54.260803 327.87001,51.825 327.52583,51 c -0.70413,-1.687841 -10.82987,-9 -12.46302,-9 -0.58138,0 -2.74584,-1.510057 -4.80993,-3.355683 -6.6173,-5.916935 -10.25033,-6.859509 -17.01324,-4.414008 -2.97571,1.076029 -3.52379,1.01333 -4.37069,-0.5 C 288.33637,32.778639 287.00715,32 285.91513,32 c -1.09202,0 -2.98216,-0.622748 -4.20031,-1.383885 -1.21815,-0.761136 -5.2349,-1.671884 -8.92612,-2.023884 -6.35431,-0.605957 -6.79665,-0.50973 -8.31598,1.809062 C 262.60199,33.256388 258.24192,35 252.97322,35 250.8791,35 248.69923,35.657483 248,36.5 c -0.68469,0.825 -1.83415,1.5 -2.55435,1.5 -0.7202,0 -2.26207,1.337812 -3.42636,2.972916 -1.1643,1.635104 -4.18544,4.447604 -6.71364,6.25 -4.20953,3.001039 -7.26616,7.099244 -16.61529,22.277084 -1.35513,2.2 -2.77607,5.464679 -3.15764,7.254841 -0.38157,1.790163 -2.2636,5.536988 -4.18229,8.326277 -3.49191,5.07634 -4.26877,8.450102 -2.92249,12.691854 0.53473,1.684769 -0.0672,3.331598 -2.35479,6.442198 -1.69023,2.29836 -3.07315,4.69544 -3.07315,5.32684 0,0.63141 -0.9,1.9625 -2,2.95799 -1.20259,1.08833 -2,3.07997 -2,4.99527 0,1.7519 -1.4025,5.99194 -3.11667,9.4223 -2.18314,4.36884 -3.23511,8.08594 -3.51208,12.40973 -0.50577,7.89582 -1.75718,16.94478 -3.13546,22.6727 -2.71286,11.27423 -3.4936,19.14975 -2.14772,21.66456 1.07879,2.01573 1.0782,3.00713 -0.003,5.64051 -3.88713,9.46456 -5.17172,14.65188 -5.12491,20.69493 0.1572,20.29375 -0.44946,25.56183 -3.6443,31.64621 -1.69057,3.21958 -3.36642,7.50328 -3.72411,9.51933 -0.3577,2.01605 -3.49476,9.66605 -6.97126,17 -3.4765,7.33395 -7.13484,15.80946 -8.12964,18.83446 -2.01804,6.1364 -7.91327,14.73652 -11.88594,17.33952 -1.43136,0.93786 -6.25909,5.51403 -10.72829,10.16925 -5.67296,5.90908 -9.82385,9.26336 -13.75105,11.11203 -3.09388,1.4564 -5.85024,2.97948 -6.12524,3.38462 -0.275,0.40514 -3.22692,2.10794 -6.55983,3.784 -3.33291,1.67606 -6.61886,3.72096 -7.30211,4.54423 -0.92509,1.11466 -1.99992,1.27956 -4.209617,0.64583 -2.318843,-0.66504 -4.213125,-0.28069 -8.667686,1.75868 -4.500373,2.06034 -7.496027,2.65887 -14.230551,2.84327 -4.868992,0.13332 -9.079424,-0.21903 -9.80982,-0.82095 -0.90127,-0.74273 -2.023946,-0.71538 -3.797053,0.0925 -3.712867,1.69169 -4.298151,1.47738 -6.060983,-2.21931 -1.532968,-3.21467 -6.012173,-5.7953 -14.07714,-8.11034 C 39.74937,330.79542 30.063248,320.07254 27.631986,315.30169 26.73555,313.54262 24.42663,310.90171 22.501051,309.433 20.252362,307.71785 19,305.92294 19,304.41524 c 0,-1.29106 -0.621751,-3.82515 -1.38167,-5.63131 -2.685248,-6.38225 -4.928133,-16.34475 -4.77172,-21.19514 0.08711,-2.70116 -0.2501,-6.39058 -0.749346,-8.1987 -0.513396,-1.85937 -0.542575,-4.93882 -0.06717,-7.08879 0.462304,-2.09072 1.069894,-7.33428 1.3502,-11.65237 0.460696,-7.09699 0.851103,-8.28935 4.064675,-12.41411 C 19.400237,235.72515 21,233.07702 21,232.35008 c 0,-0.72694 1.71989,-2.45987 3.821977,-3.85097 3.931663,-2.60185 7.519708,-8.44512 6.622077,-10.78431 -0.945952,-2.46511 2.478932,-8.49255 8.30388,-14.61398 C 44.316213,198.30003 46.187483,197 48.529482,197 c 2.546656,0 3.505457,-0.84669 6.643281,-5.86646 3.459845,-5.53494 4.150602,-6.06887 12.223058,-9.44807 10.659457,-4.46214 14.547511,-4.63391 37.518019,-1.65758 8.93954,1.15832 12.42461,2.47864 15.49351,5.86973 1.04644,1.15631 2.75081,2.10238 3.78748,2.10238 1.03666,0 3.61105,0.88064 5.72085,1.95698 3.37267,1.72061 5.31438,3.97751 9.69522,11.269 0.611,1.01695 2.02784,2.84462 3.14854,4.06151 2.29321,2.49002 9.24056,18.73094 9.24056,21.60177 0,1.02622 -0.67815,2.42866 -1.507,3.11655 -2.00223,1.66171 -7.77159,-2.05183 -16.13505,-10.38558 -12.38549,-12.34149 -15.0507,-14.40153 -24.85795,-19.21359 -9.21903,-4.52344 -10.668582,-4.93338 -18.560881,-5.24908 -6.209931,-0.2484 -9.607507,0.0949 -12.372124,1.25 C 76.470811,197.2834 73.755452,198 72.532864,198 c -1.222589,0 -2.9872,0.84455 -3.921357,1.87679 -0.934158,1.03223 -4.255341,2.68102 -7.380409,3.66397 -4.451564,1.40019 -7.311324,3.31942 -13.206519,8.86312 -13.538233,12.73103 -13.380995,12.3743 -18.114208,41.09612 -2.780299,16.87126 -2.203452,27.25298 2.000295,36 1.585954,3.3 3.409923,7.125 4.053263,8.5 3.846081,8.22016 8.991582,13.93509 13.938296,15.48078 1.321223,0.41284 4.621635,2.05924 7.334248,3.65865 4.051463,2.38883 6.377791,2.98795 13.029776,3.35569 4.453764,0.24622 8.5819,0.0459 9.173636,-0.44523 2.084194,-1.72973 10.107136,-4.02095 14.130116,-4.03534 3.136483,-0.0112 4.971408,-0.77394 7.999999,-3.32539 2.1615,-1.82097 7.755,-5.17989 12.43,-7.46428 12.66517,-6.18869 28.10283,-21.84007 29.60756,-30.01746 0.37521,-2.03908 1.51701,-4.78061 2.53732,-6.09228 1.02032,-1.31167 1.85512,-3.16907 1.85512,-4.12755 0,-0.95849 0.72246,-2.34229 1.60547,-3.07512 C 151.87744,260.0269 156,250.30691 156,246.83573 c 0,-1.60347 0.84508,-4.58498 1.87796,-6.62557 1.03288,-2.04059 2.2169,-5.27856 2.63115,-7.19549 0.41424,-1.91694 1.32442,-4.39194 2.02261,-5.5 1.94461,-3.08622 3.61383,-12.37254 2.57506,-14.32569 -1.19251,-2.24219 -1.77953,-12.3661 -0.80596,-13.89964 0.9314,-1.46712 1.3869,-35.36757 0.49461,-36.81133 -0.34719,-0.56176 -0.22963,-3.71163 0.26124,-6.9997 0.49087,-3.28807 1.78297,-12.19127 2.87132,-19.7849 1.3539,-9.44632 2.62559,-14.85306 4.02676,-17.1202 1.12636,-1.82249 2.34618,-5.50952 2.71071,-8.19341 0.36452,-2.68389 1.48819,-6.0048 2.49704,-7.3798 1.00885,-1.375 2.69254,-4.75 3.74153,-7.5 5.17833,-13.575304 8.65969,-20.336716 12.72136,-24.707159 C 196.41966,67.786155 198,65.163538 198,63.533054 c 0,-1.403946 0.93734,-3.335725 2.08297,-4.292841 1.14563,-0.957117 3.17183,-3.865133 4.50268,-6.462256 1.33084,-2.597124 3.76398,-5.715903 5.40697,-6.93062 1.64299,-1.214718 3.24711,-3.027298 3.56471,-4.027957 C 213.87492,40.818721 214.79544,40 215.60293,40 c 0.80748,0 2.3161,-1.978204 3.35249,-4.396008 1.49158,-3.479701 2.63798,-4.644727 5.49989,-5.589242 1.98854,-0.656279 4.32635,-2.278075 5.19512,-3.603992 C 230.77684,24.691639 232.15115,24 234.4407,24 c 2.13175,0 3.99991,-0.840105 5.5593,-2.5 1.29175,-1.375 2.83627,-2.5 3.43227,-2.5 0.596,0 3.29233,-1.175777 5.99185,-2.612838 4.39984,-2.342219 5.59887,-2.54478 11.57672,-1.955738 4.6991,0.463038 7.97251,0.227605 11.08384,-0.797182 6.55718,-2.15975 22.89071,-1.308659 28.68125,1.494493 2.41636,1.169738 4.89722,3.232614 5.51303,4.584169 0.92999,2.041109 1.61552,2.358199 4.04697,1.87191 3.02612,-0.605223 13.93952,3.882222 18.17407,7.472932 1.1,0.932751 3.71541,2.245447 5.81202,2.917102 2.25506,0.722417 4.14834,2.10013 4.63546,3.373172 0.45289,1.183589 2.67498,3.635685 4.93798,5.449103 2.8251,2.263848 4.11454,4.073579 4.11454,5.774751 0,1.703237 0.75906,2.766221 2.42857,3.400968 1.62454,0.61765 2.53498,1.848522 2.75,3.717861 0.2168,1.8849 1.21656,3.221564 3.07143,4.106475 1.8821,0.897903 2.75,2.076454 2.75,3.734335 0,1.48039 0.97218,3.059375 2.5,4.060444 1.87207,1.22663 2.5,2.510089 2.5,5.109917 0,2.939311 0.46017,3.645548 3,4.604228 2.51011,0.947461 3,1.678845 3,4.478877 0,1.840577 0.45935,4.20481 1.02078,5.253851 2.79249,5.217813 4.50245,23.98107 5.23319,57.42354 0.34046,15.5813 0.15096,18.59803 -1.42956,22.75763 -1.24306,3.27147 -1.76773,7.09669 -1.65108,12.03763 0.1714,7.26049 -2.07427,18.61181 -6.18078,31.24237 -1.07291,3.3 -2.43013,10.05 -3.01605,15 -1.26807,10.71309 -2.4712,15.56446 -5.05592,20.387 -1.05632,1.97086 -1.92058,4.617 -1.92058,5.88031 0,1.26331 -0.63427,3.81494 -1.40948,5.67029 -0.77521,1.85534 -1.93793,5.9189 -2.58382,9.03012 -0.64589,3.11122 -2.3108,8.13912 -3.6998,11.17311 -1.75521,3.83387 -2.34205,6.43342 -1.9241,8.52319 0.42974,2.14869 -0.0753,4.19541 -1.76965,7.17141 -2.20731,3.87703 -4.06426,10.96004 -6.52306,24.8812 -0.55533,3.14414 -1.91881,7.71226 -3.02995,10.15136 -1.11115,2.43911 -2.63556,7.9804 -3.3876,12.31397 -0.75203,4.33358 -1.93103,8.93252 -2.62001,10.21988 -0.8261,1.54358 -1.03006,4.12244 -0.59895,7.57296 0.49329,3.94815 0.22736,6.12642 -1.08355,8.87543 -1.64191,3.44313 -1.64416,4.04131 -0.0408,10.89645 0.93304,3.98932 1.69068,8.21086 1.68363,9.3812 -0.0164,2.71855 2.65672,9.13655 5.09804,12.24018 1.11806,1.42139 1.88914,3.99207 1.88914,6.29818 0,2.83125 0.47844,4.04944 1.75,4.45582 4.36763,1.39588 6.59465,3.06815 7.48419,5.6199 0.5288,1.51692 1.55791,2.75804 2.28691,2.75804 0.729,0 2.66244,1.125 4.29653,2.5 1.78445,1.50151 4.22134,2.5 6.10148,2.5 2.46868,0 3.34404,0.56193 4.1411,2.65838 0.5559,1.4621 2.34476,4.17776 3.97525,6.03479 1.6305,1.85703 2.96454,4.17976 2.96454,5.16163 0,0.98186 1.61007,3.6662 3.57792,5.9652 2.96792,3.46735 4.19056,4.18 7.17126,4.18 2.01801,0 4.44212,0.76721 5.52941,1.75 1.06485,0.9625 3.57528,1.85442 5.57875,1.98204 2.00346,0.12762 6.22597,0.50653 9.38334,0.84201 5.44668,0.57873 5.99128,0.42601 10.63398,-2.98204 3.11519,-2.28676 6.01293,-3.59201 7.97452,-3.59201 1.99763,0 4.28284,-1.05503 6.49804,-3 1.87924,-1.65 4.30922,-3 5.39994,-3 1.09072,0 3.12729,-0.9 4.52571,-2 1.39842,-1.1 3.46175,-2 4.58517,-2 1.12342,0 2.40244,-0.63596 2.84227,-1.41324 0.43983,-0.77728 2.13368,-1.56478 3.76412,-1.75 2.45538,-0.27893 3.08048,-0.90871 3.6402,-3.66744 0.37168,-1.83187 1.90575,-4.6145 3.40907,-6.18362 2.43525,-2.54185 2.66008,-3.34121 2.06182,-7.33065 -0.7717,-5.14606 0.86553,-7.25539 2.43251,-3.13394 1.5254,4.01212 3.36403,2.46422 4.63836,-3.90494 0.63052,-3.15134 1.86802,-6.5271 2.75,-7.50168 0.88199,-0.97459 1.60361,-2.98816 1.60361,-4.47462 0,-3.54575 2.66265,-4.56652 4.62048,-1.77133 1.5286,2.18239 3.84754,2.80124 4.78895,1.278 0.29011,-0.4694 -0.006,-2.26771 -0.6588,-3.99625 -0.99339,-2.63177 -0.90696,-3.61564 0.53155,-6.05083 0.9448,-1.59943 1.71782,-3.63725 1.71782,-4.5285 0,-1.44769 3.60627,-3.57096 6.0651,-3.57096 1.44423,0 1.10502,10.11688 -0.52028,15.51733 -0.80035,2.65936 -3.12849,7.26477 -5.17365,10.23425 -3.45088,5.01053 -3.63402,5.63263 -2.54482,8.64474 1.80111,4.98088 1.46333,6.28095 -2.39693,9.22531 -1.96381,1.49788 -4.66321,4.87962 -5.99865,7.51498 -1.33544,2.63537 -3.35823,5.28938 -4.49509,5.89781 -1.13686,0.60843 -4.08426,4.22459 -6.5498,8.03591 -2.46553,3.81132 -4.92103,6.92967 -5.45667,6.92967 -0.53564,0 -2.92667,1.8 -5.31338,4 -3.34108,3.07969 -5.14552,4 -7.8428,4 -1.97586,0 -4.59944,0.86222 -6.01736,1.97755 C 429.68246,460.39493 414.12515,468 412.25324,468 c -0.74391,0 -2.67622,0.68449 -4.29402,1.52109 -2.48433,1.28469 -4.61352,1.36236 -13.70034,0.49974 -10.07866,-0.95677 -10.93019,-0.89488 -13.46839,0.97891 -2.84021,2.09675 -4.03837,2.41905 -5.0886,1.36882 z"
     id="path3382"
     inkscape:connector-curvature="0" />
</svg>
